<mxfile host="app.diagrams.net" agent="Mozilla/5.0 (Windows NT 10.0; Win64; x64) AppleWebKit/537.36 (KHTML, like Gecko) Chrome/130.0.0.0 Safari/537.36" version="24.8.4">
  <diagram name="第 1 页" id="foSNegPKrguEiwjxMZeC">
    <mxGraphModel dx="1222" dy="1803" grid="1" gridSize="10" guides="1" tooltips="1" connect="1" arrows="1" fold="1" page="1" pageScale="1" pageWidth="827" pageHeight="1169" math="0" shadow="0">
      <root>
        <mxCell id="0" />
        <mxCell id="1" parent="0" />
        <mxCell id="tMpl9T8Y8EHcBf0lue8t-3" value="" style="whiteSpace=wrap;html=1;aspect=fixed;" vertex="1" parent="1">
          <mxGeometry x="155" y="-20" width="470" height="470" as="geometry" />
        </mxCell>
        <mxCell id="tMpl9T8Y8EHcBf0lue8t-1" value="登入" style="ellipse;whiteSpace=wrap;html=1;" vertex="1" parent="1">
          <mxGeometry x="195" y="90" width="120" height="80" as="geometry" />
        </mxCell>
        <mxCell id="tMpl9T8Y8EHcBf0lue8t-2" value="串接 NCU Portal&lt;br&gt;OCID 驗證" style="ellipse;whiteSpace=wrap;html=1;" vertex="1" parent="1">
          <mxGeometry x="475" y="90" width="120" height="80" as="geometry" />
        </mxCell>
        <mxCell id="tMpl9T8Y8EHcBf0lue8t-4" value="" style="whiteSpace=wrap;html=1;aspect=fixed;" vertex="1" parent="1">
          <mxGeometry x="160" y="-510" width="420" height="420" as="geometry" />
        </mxCell>
        <mxCell id="tMpl9T8Y8EHcBf0lue8t-5" value="上傳影片" style="ellipse;whiteSpace=wrap;html=1;" vertex="1" parent="1">
          <mxGeometry x="200" y="-490" width="120" height="80" as="geometry" />
        </mxCell>
        <mxCell id="tMpl9T8Y8EHcBf0lue8t-6" value="下載影片" style="ellipse;whiteSpace=wrap;html=1;" vertex="1" parent="1">
          <mxGeometry x="330" y="-281" width="120" height="80" as="geometry" />
        </mxCell>
        <mxCell id="tMpl9T8Y8EHcBf0lue8t-7" value="查閱觀看紀錄" style="ellipse;whiteSpace=wrap;html=1;" vertex="1" parent="1">
          <mxGeometry x="200" y="-200" width="120" height="80" as="geometry" />
        </mxCell>
        <mxCell id="tMpl9T8Y8EHcBf0lue8t-11" style="edgeStyle=orthogonalEdgeStyle;rounded=0;orthogonalLoop=1;jettySize=auto;html=1;exitX=0.5;exitY=0.5;exitDx=0;exitDy=0;exitPerimeter=0;entryX=0;entryY=0.5;entryDx=0;entryDy=0;" edge="1" parent="1" source="tMpl9T8Y8EHcBf0lue8t-8" target="tMpl9T8Y8EHcBf0lue8t-5">
          <mxGeometry relative="1" as="geometry" />
        </mxCell>
        <mxCell id="tMpl9T8Y8EHcBf0lue8t-12" style="edgeStyle=orthogonalEdgeStyle;rounded=0;orthogonalLoop=1;jettySize=auto;html=1;exitX=0.5;exitY=0.5;exitDx=0;exitDy=0;exitPerimeter=0;entryX=0;entryY=0.5;entryDx=0;entryDy=0;" edge="1" parent="1" source="tMpl9T8Y8EHcBf0lue8t-8" target="tMpl9T8Y8EHcBf0lue8t-6">
          <mxGeometry relative="1" as="geometry" />
        </mxCell>
        <mxCell id="tMpl9T8Y8EHcBf0lue8t-13" style="edgeStyle=orthogonalEdgeStyle;rounded=0;orthogonalLoop=1;jettySize=auto;html=1;exitX=0.5;exitY=0.5;exitDx=0;exitDy=0;exitPerimeter=0;entryX=0;entryY=0.5;entryDx=0;entryDy=0;" edge="1" parent="1" source="tMpl9T8Y8EHcBf0lue8t-8" target="tMpl9T8Y8EHcBf0lue8t-7">
          <mxGeometry relative="1" as="geometry" />
        </mxCell>
        <mxCell id="tMpl9T8Y8EHcBf0lue8t-15" style="edgeStyle=orthogonalEdgeStyle;rounded=0;orthogonalLoop=1;jettySize=auto;html=1;exitX=0.5;exitY=0.5;exitDx=0;exitDy=0;exitPerimeter=0;entryX=0;entryY=0.5;entryDx=0;entryDy=0;" edge="1" parent="1" source="tMpl9T8Y8EHcBf0lue8t-8" target="tMpl9T8Y8EHcBf0lue8t-14">
          <mxGeometry relative="1" as="geometry" />
        </mxCell>
        <mxCell id="tMpl9T8Y8EHcBf0lue8t-8" value="會員" style="shape=umlActor;verticalLabelPosition=bottom;verticalAlign=top;html=1;outlineConnect=0;" vertex="1" parent="1">
          <mxGeometry x="20" y="-328" width="30" height="60" as="geometry" />
        </mxCell>
        <mxCell id="tMpl9T8Y8EHcBf0lue8t-14" value="查詢影片" style="ellipse;whiteSpace=wrap;html=1;" vertex="1" parent="1">
          <mxGeometry x="330" y="-390" width="120" height="80" as="geometry" />
        </mxCell>
        <mxCell id="tMpl9T8Y8EHcBf0lue8t-17" style="edgeStyle=orthogonalEdgeStyle;rounded=0;orthogonalLoop=1;jettySize=auto;html=1;exitX=0.5;exitY=0.5;exitDx=0;exitDy=0;exitPerimeter=0;entryX=1;entryY=0.5;entryDx=0;entryDy=0;" edge="1" parent="1" source="tMpl9T8Y8EHcBf0lue8t-16" target="tMpl9T8Y8EHcBf0lue8t-14">
          <mxGeometry relative="1" as="geometry">
            <Array as="points">
              <mxPoint x="540" y="-297" />
              <mxPoint x="540" y="-350" />
            </Array>
          </mxGeometry>
        </mxCell>
        <mxCell id="tMpl9T8Y8EHcBf0lue8t-18" style="edgeStyle=orthogonalEdgeStyle;rounded=0;orthogonalLoop=1;jettySize=auto;html=1;exitX=0.5;exitY=0.5;exitDx=0;exitDy=0;exitPerimeter=0;entryX=1;entryY=0.5;entryDx=0;entryDy=0;" edge="1" parent="1" source="tMpl9T8Y8EHcBf0lue8t-16" target="tMpl9T8Y8EHcBf0lue8t-6">
          <mxGeometry relative="1" as="geometry">
            <Array as="points">
              <mxPoint x="540" y="-297" />
              <mxPoint x="540" y="-241" />
            </Array>
          </mxGeometry>
        </mxCell>
        <mxCell id="tMpl9T8Y8EHcBf0lue8t-16" value="訪客" style="shape=umlActor;verticalLabelPosition=bottom;verticalAlign=top;html=1;outlineConnect=0;" vertex="1" parent="1">
          <mxGeometry x="670" y="-327" width="30" height="60" as="geometry" />
        </mxCell>
        <mxCell id="tMpl9T8Y8EHcBf0lue8t-25" value="利用 OpenID Token&lt;div&gt;設置登入 session&amp;nbsp;&lt;/div&gt;" style="ellipse;whiteSpace=wrap;html=1;" vertex="1" parent="1">
          <mxGeometry x="330" y="230" width="120" height="80" as="geometry" />
        </mxCell>
        <mxCell id="tMpl9T8Y8EHcBf0lue8t-26" value="&lt;font style=&quot;font-size: 13px;&quot;&gt;&amp;lt;&amp;lt; include &amp;gt;&amp;gt;&lt;/font&gt;" style="endArrow=open;endSize=12;dashed=1;html=1;rounded=0;entryX=0;entryY=0.5;entryDx=0;entryDy=0;" edge="1" parent="1" source="tMpl9T8Y8EHcBf0lue8t-1" target="tMpl9T8Y8EHcBf0lue8t-2">
          <mxGeometry width="160" relative="1" as="geometry">
            <mxPoint x="335" y="140" as="sourcePoint" />
            <mxPoint x="495" y="140" as="targetPoint" />
          </mxGeometry>
        </mxCell>
        <mxCell id="tMpl9T8Y8EHcBf0lue8t-27" value="&lt;font style=&quot;font-size: 13px;&quot;&gt;&amp;lt;&amp;lt; include &amp;gt;&amp;gt;&lt;/font&gt;" style="endArrow=open;endSize=12;dashed=1;html=1;rounded=0;entryX=1;entryY=0.5;entryDx=0;entryDy=0;exitX=0.5;exitY=1;exitDx=0;exitDy=0;" edge="1" parent="1" source="tMpl9T8Y8EHcBf0lue8t-2" target="tMpl9T8Y8EHcBf0lue8t-25">
          <mxGeometry width="160" relative="1" as="geometry">
            <mxPoint x="325" y="140" as="sourcePoint" />
            <mxPoint x="485" y="140" as="targetPoint" />
          </mxGeometry>
        </mxCell>
        <mxCell id="tMpl9T8Y8EHcBf0lue8t-29" style="edgeStyle=orthogonalEdgeStyle;rounded=0;orthogonalLoop=1;jettySize=auto;html=1;exitX=0.5;exitY=0.5;exitDx=0;exitDy=0;exitPerimeter=0;" edge="1" parent="1" target="tMpl9T8Y8EHcBf0lue8t-1">
          <mxGeometry relative="1" as="geometry">
            <mxPoint x="60" y="130" as="sourcePoint" />
          </mxGeometry>
        </mxCell>
        <mxCell id="tMpl9T8Y8EHcBf0lue8t-28" value="使用者" style="shape=umlActor;verticalLabelPosition=bottom;verticalAlign=top;html=1;outlineConnect=0;" vertex="1" parent="1">
          <mxGeometry x="40" y="100" width="30" height="60" as="geometry" />
        </mxCell>
      </root>
    </mxGraphModel>
  </diagram>
</mxfile>
